<?xml version="1.0" standalone="no"?>
<!DOCTYPE svg PUBLIC "-//W3C//DTD SVG 1.1//EN" "http://www.w3.org/Graphics/SVG/1.1/DTD/svg11.dtd" >
<svg xmlns="http://www.w3.org/2000/svg" xmlns:xlink="http://www.w3.org/1999/xlink" version="1.1" viewBox="-10 0 1184 1000">
   <path fill="currentColor"
d="M1140 344q-32 63 -67.5 112t-70 85.5t-65 61.5t-51.5 40q-17 12 -31 19q-4 2 -5 3l-2 1q-26 13 -55.5 22t-63.5 12q-36 4 -71 -1t-65 -19.5t-54 -38.5t-39 -59q-10 -23 -10.5 -47t12.5 -46q6 -11 17.5 -17.5t24.5 -6.5q15 0 25 10q4 4 6.5 7.5t4.5 6.5q25 30 59 39
q6 1 24.5 1.5t40 -9t41.5 -33.5t30 -72q3 9 7 16q3 7 8 12t11 5t11 -4q21 -17 33.5 -42.5t17.5 -55.5q2 -38 -8 -73q-14 -48 -39.5 -80.5t-60 -52.5t-76 -28.5t-86.5 -8.5q-58 0 -116 7t-111 32q-5 2 -11 4.5t-11 4.5q-1 0 -10 4t-11 7q27 -36 62.5 -62.5t74.5 -48.5
q5 -2 14 -7.5t17.5 -12.5t12 -14t-3.5 -13q-5 -5 -10.5 -6t-12.5 -3q-1 -1 -5 -1q-2 -1 -4 -1l4 -1q21 -5 41.5 -7t40.5 -2q54 -1 108 3q26 4 51.5 7.5t50.5 10.5q22 5 44 9.5t44 -0.5q12 -3 15.5 -12t2.5 -20q-1 -12 -6 -27q25 17 49 38q21 18 43.5 41.5t38.5 51.5
q22 36 32 76t15 74q5 40 4 78q0 28 11.5 37.5t27.5 9.5q10 0 19.5 -2.5t17.5 -5.5zM30 532q23 -45 54 -91t67.5 -88.5t78.5 -78.5t87 -60q3 -1 5 -3q1 0 1 -1q51 -26 119 -34q36 -3 70 1.5t64 19t54.5 38.5t39.5 59q11 23 11 47t-13 46q-6 11 -17.5 17.5t-24.5 6.5
q-15 0 -25 -10q-4 -4 -6 -8t-4 -6q-24 -30 -60 -39q-6 -2 -24.5 -2t-39.5 9.5t-41 33.5t-31 72q-3 -9 -6 -17q-3 -6 -7.5 -11t-10.5 -5t-10 4q-23 17 -36 42.5t-17 55.5q-2 19 1 37.5t8 35.5q3 12 9 26t13 27.5t16 26t18 20.5q42 42 95 56t110 14q19 0 42.5 -1t48.5 -3.5
t48 -6.5t40 -10q35 -12 69 -27q1 0 10 -4t12 -7q-27 36 -63 62.5t-74 48.5q-4 2 -14 7.5t-18 12.5t-12 14t3 13q5 5 11.5 6t11.5 3q2 0 6 1t6 1h-2l-5 1h-2q-20 5 -39.5 7t-39.5 2q-55 1 -109 -3q-26 -4 -51.5 -7.5t-50.5 -10.5q-22 -5 -43.5 -9.5t-44.5 0.5q-12 3 -15.5 12
t-2.5 20q1 12 6 27q-25 -17 -49 -38q-20 -18 -42 -41.5t-39 -51.5q-21 -37 -31.5 -77t-15.5 -73q-6 -40 -5 -78q0 -28 -11.5 -37.5t-27.5 -9.5q-10 0 -19.5 2.5t-17.5 5.5z" />
</svg>
