<?xml version="1.0" standalone="no"?>
<!DOCTYPE svg PUBLIC "-//W3C//DTD SVG 1.1//EN" "http://www.w3.org/Graphics/SVG/1.1/DTD/svg11.dtd" >
<svg xmlns="http://www.w3.org/2000/svg" xmlns:xlink="http://www.w3.org/1999/xlink" version="1.1" viewBox="-10 0 1054 1000">
   <path fill="currentColor"
d="M1010 257q3 37 -2.5 81t-29 94t-67.5 106.5t-117 120.5q-54 47 -91 77.5t-66.5 53t-55.5 41t-59 40.5q-34 -22 -60.5 -40.5t-55.5 -41t-66 -53t-91 -77.5q-73 -64 -117.5 -120.5t-67.5 -106.5t-28.5 -94t-2.5 -81q4 -44 21 -88t48 -79.5t76 -58t104 -22.5q66 0 111 21.5
t74 47.5q34 31 55 70q21 -39 54 -70q29 -26 74 -47.5t111 -21.5q59 0 104 22.5t75.5 58t48 79.5t21.5 88z" />
</svg>
