<?xml version="1.0" standalone="no"?>
<!DOCTYPE svg PUBLIC "-//W3C//DTD SVG 1.1//EN" "http://www.w3.org/Graphics/SVG/1.1/DTD/svg11.dtd" >
<svg xmlns="http://www.w3.org/2000/svg" xmlns:xlink="http://www.w3.org/1999/xlink" version="1.1" viewBox="-10 0 1163 1000">
   <path fill="currentColor"
d="M714 254q93 -33 174 -73q35 -17 70.5 -37t67 -43.5t56.5 -49t40 -52.5q-6 81 -20 153q-6 31 -14 63.5t-19 62t-24.5 55t-30.5 43.5q-14 14 -27 27.5t-27 25.5q-13 12 -26.5 23t-27.5 20q-28 17 -56 38t-47 48q-9 13 -17.5 26t-20.5 24q-8 7 -17.5 12t-20.5 11
q-10 5 -19 13t-17 16q-4 4 -9 10.5t-9 13t-6 14t1 13.5q6 14 19 19t27 5q23 0 43 -10t38 -25.5t33 -34t28 -34.5q1 0 1.5 -2.5t2.5 -2.5q21 -5 39 -11q16 -5 31 -11t23 -12q-20 32 -44 64q-21 28 -49 59.5t-62 58.5t-59 45.5t-44.5 33.5t-35 28.5t-29.5 30.5
q-9 11 -18.5 16.5t-17.5 7.5q-9 3 -18 3t-18 -3q-8 -2 -17.5 -7.5t-18.5 -16.5q-14 -17 -29.5 -30.5t-35 -28.5t-45 -33.5t-59.5 -45.5q-33 -27 -61.5 -58.5t-48.5 -59.5q-24 -32 -44 -64q8 6 23 12t30 11q18 6 39 11q2 0 2.5 2.5t1.5 2.5q13 16 28 34.5t33 34t38.5 25.5
t43.5 10q14 0 27 -5t19 -19q5 -13 -5 -28t-18 -23q-16 -17 -38 -29q-10 -5 -19.5 -10.5t-17.5 -12.5q-13 -11 -21 -24t-17 -26q-18 -26 -47 -47.5t-55 -38.5q-30 -18 -57 -44t-51 -52q-17 -18 -30.5 -43.5t-24.5 -55t-19 -62t-14 -63.5q-14 -72 -20 -153q15 27 40 52.5
t56.5 49t67 43.5t69.5 37q81 40 175 73q2 46 10.5 80t21.5 59t29 42.5t32 29.5q8 5 15.5 8t14.5 5q7 1 15 1q7 0 15 -1q7 -2 14.5 -5t15.5 -8q16 -12 31.5 -29.5t28.5 -42.5t22 -59t11 -80z" />
</svg>
