<?xml version="1.0" standalone="no"?>
<!DOCTYPE svg PUBLIC "-//W3C//DTD SVG 1.1//EN" "http://www.w3.org/Graphics/SVG/1.1/DTD/svg11.dtd" >
<svg xmlns="http://www.w3.org/2000/svg" xmlns:xlink="http://www.w3.org/1999/xlink" version="1.1" viewBox="-10 0 980 1000">
   <path fill="currentColor"
d="M405 337q-43 14 -84.5 24.5t-83.5 19.5l166 -288q11 -20 30.5 -31.5t42.5 -11.5q24 0 44 11.5t31 31.5l176 305q-59 -11 -111 -22t-91 -20t-61.5 -14.5t-23.5 -5.5l-17 -5zM550 583l-12 4q-47 19 -103 34t-117 26t-125 18.5t-128 12.5l90 -156q60 -10 130 -25t141 -38
q20 5 58 14t88.5 20t110.5 22.5t124 21.5l76 131q-68 -14 -126.5 -28.5t-101.5 -26t-68 -19.5l-25 -8zM552 655q15 4 48.5 14t80 22t104.5 25.5t123 26.5q-8 32 -28 54.5t-57 22.5h-692q-23 0 -42.5 -11.5t-30.5 -31.5q-5 -7 -6.5 -14t-3.5 -15q67 -5 134.5 -12.5t132 -18.5
t125 -26.5t112.5 -35.5z" />
</svg>
