<?xml version="1.0" standalone="no"?>
<!DOCTYPE svg PUBLIC "-//W3C//DTD SVG 1.1//EN" "http://www.w3.org/Graphics/SVG/1.1/DTD/svg11.dtd" >
<svg xmlns="http://www.w3.org/2000/svg" xmlns:xlink="http://www.w3.org/1999/xlink" version="1.1" viewBox="-10 0 1331 1000">
   <path fill="currentColor"
d="M181 67q62 -15 123 -25.5t125 -10.5q48 0 85 5.5t63 19.5q54 22 86 82q17 -35 43.5 -56.5t58 -32.5t67 -14.5t70.5 -3.5q62 0 121 11t119 25l55 107l49 2q10 1 16.5 8.5t6.5 18.5v720q0 11 -7.5 18.5t-18.5 6.5l-473 -35q-26 14 -48.5 23.5t-52.5 9.5q-31 0 -56.5 -9.5
t-52.5 -23.5l-476 35q-11 1 -19.5 -6.5t-8.5 -18.5v-715q0 -10 7 -17.5t17 -8.5l42 -2l14 -29h1zM225 719q50 -10 101.5 -16.5t102.5 -6.5q142 0 211 62v-532q0 -46 -15.5 -76.5t-42.5 -48.5t-63 -25t-77 -7q-110 0 -217 29v621zM686 759q23 -21 46.5 -33.5t48.5 -19
t52.5 -8.5t58.5 -2q54 0 105 6t103 17v-623q-48 -11 -105 -19t-106 -8q-106 0 -161 43q-22 17 -32 46t-10 70v531zM179 730v-576l-42 76v581zM1146 158v572l42 79v-572zM166 863l423 -34l3 4q15 20 46 27q-7 -40 -26.5 -63.5t-46.5 -36t-60.5 -15.5t-69.5 -3q-55 0 -111 6.5
t-110 20.5zM1164 863l-48 -93q-57 -11 -114 -19.5t-115 -8.5q-98 0 -147 30t-54 90q34 -7 52 -30l2 -3z" />
</svg>
