<?xml version="1.0" standalone="no"?>
<!DOCTYPE svg PUBLIC "-//W3C//DTD SVG 1.1//EN" "http://www.w3.org/Graphics/SVG/1.1/DTD/svg11.dtd" >
<svg xmlns="http://www.w3.org/2000/svg" xmlns:xlink="http://www.w3.org/1999/xlink" version="1.1" viewBox="-10 0 973 1000">
   <path fill="currentColor"
d="M913 694q11 20 11 42.5t-11 42.5t-31 31t-44 11h-706q-25 0 -44.5 -11t-30.5 -31t-11 -42.5t11 -42.5l354 -604q11 -19 31 -30.5t43 -11.5t43.5 11.5t31.5 30.5l176 303zM568 535q29 -21 46.5 -52t17.5 -68q0 -30 -11.5 -56.5t-31.5 -46t-47 -30.5t-57 -11t-57 11
t-47 30.5t-31.5 46t-11.5 56.5q0 37 17.5 68t46.5 52l-44 193q-2 7 3.5 13t13.5 6h220q8 0 14 -6t4 -13z" />
</svg>
