<?xml version="1.0" standalone="no"?>
<!DOCTYPE svg PUBLIC "-//W3C//DTD SVG 1.1//EN" "http://www.w3.org/Graphics/SVG/1.1/DTD/svg11.dtd" >
<svg xmlns="http://www.w3.org/2000/svg" xmlns:xlink="http://www.w3.org/1999/xlink" version="1.1" viewBox="-10 0 1099 1000">
   <path fill="currentColor"
d="M1013 688q-115 -36 -239 -36q-93 0 -182 21q6 -11 28 -18.5t48.5 -13t51 -9t35.5 -4.5q-71 -29 -153 -31l-15 -49q-1 8 -3 17q-2 7 -3.5 15t-3.5 16q-62 1 -122 16.5t-110 48.5q2 -2 7 1q7 0 9 2q11 0 28 3t35 7.5t35 9t27 8.5q11 3 18 6l28 9q8 3 18 6l11 6q10 5 16 9
q4 2 8 4.5t8 4.5t8 5q-73 -14 -145.5 -25t-145.5 -9q-8 0 -11 1h-24q-3 1 -11 1l-26 -75l-16 61l-13 -26l-18 50q-42 11 -83 27t-77 42l201 -431l85 134l216 -510l177 392l68 -167zM1034 777q14 7 15.5 15.5t-7 16.5t-25 16t-38.5 14q-15 5 -31 5.5t-33 2.5q-14 4 -29.5 6
t-28.5 11q-2 4 -3 4q-1 2 2 8q0 1 7 5l9 4q5 2 9 6.5t2 11.5q-3 11 -19 17t-27 9q-9 3 -17.5 5.5t-18.5 5.5l-43 -113l-22 76l-34 -133l-40 188h-11h-69t-69 -2q-61 -3 -120 -8.5t-122 -13.5q-29 -3 -57.5 -9.5t-56.5 -14.5q-14 -4 -28 -7t-28 -8q-11 -5 -24.5 -9t-19.5 -15
q-5 -8 7 -17t28.5 -17t33 -13.5t20.5 -7.5q10 -3 30 -7.5t41.5 -9t41.5 -8t31 -3.5q71 -9 143 -9q34 0 68.5 -2.5t66.5 -10.5q31 -7 61 -13.5t59 -11.5q20 -4 41 -5t40 -1q20 -1 40 -1t41 2q46 5 94 12t90 29z" />
</svg>
