<?xml version="1.0" standalone="no"?>
<!DOCTYPE svg PUBLIC "-//W3C//DTD SVG 1.1//EN" "http://www.w3.org/Graphics/SVG/1.1/DTD/svg11.dtd" >
<svg xmlns="http://www.w3.org/2000/svg" xmlns:xlink="http://www.w3.org/1999/xlink" version="1.1" viewBox="-10 0 982 1000">
   <path fill="currentColor"
d="M906 695q11 20 11.5 42.5t-11.5 42.5q-25 41 -73 41h-246q-4 -10 -9 -26.5t-6 -33t3.5 -29t19.5 -14.5q29 -4 55 -13t47 -25t35.5 -38.5t19.5 -53.5q4 -26 -6 -60.5t-26.5 -67.5t-35.5 -59.5t-31 -34.5q11 44 13 82q2 33 -7 66.5t-38 51.5l-10 6q-5 -26 -16.5 -47
t-23.5 -37q-15 -18 -32 -33q1 1 3.5 6.5t2.5 6.5q0 6 1 11.5t3 10.5q3 13 3 24q1 12 2 26.5t-1 25.5q-4 21 -10 37.5t-23 36.5l-2 2q-20 17 -26.5 31t-8.5 22q-2 -8 -8.5 -22t-26.5 -31l-3 -2q-16 -20 -22.5 -36.5t-8.5 -37.5q-2 -11 -1.5 -25.5t1.5 -26.5q1 -6 1 -11.5
t2 -12.5q1 -5 3 -10.5t2 -11.5q1 -1 1 -2l4 -9l1 -2q-17 15 -31 33q-13 16 -25 37t-17 47l-8 -6q-28 -21 -36.5 -55t-7.5 -66q1 -38 11 -79q-13 8 -31.5 34.5t-35 59.5t-26 67.5t-5.5 60.5q6 32 20 55t34.5 38t46.5 23.5t55 13.5q15 2 19 14.5t2.5 29t-6 33t-8.5 26.5h-248
q-23 0 -42 -10.5t-30 -30.5t-11 -43t11 -42l351 -605q11 -19 30.5 -30t42.5 -11q49 0 73 41z" />
</svg>
