<?xml version="1.0" standalone="no"?>
<!DOCTYPE svg PUBLIC "-//W3C//DTD SVG 1.1//EN" "http://www.w3.org/Graphics/SVG/1.1/DTD/svg11.dtd" >
<svg xmlns="http://www.w3.org/2000/svg" xmlns:xlink="http://www.w3.org/1999/xlink" version="1.1" viewBox="-10 0 801 1000">
   <path fill="currentColor"
d="M502 465h229l-2 5q-2 25 -2.5 61.5t-0.5 99.5v186l-4 1q-18 2 -33 5.5t-30 8.5q-28 8 -64 15.5t-99 7.5q-95 0 -175 -31t-138 -86t-90.5 -130.5t-32.5 -165.5q0 -93 33 -169.5t91 -130.5t137 -83.5t170 -29.5q51 0 83.5 4.5t60.5 9.5q14 3 28 5t29 4h3v257l-6 -8
q-73 -73 -190 -73q-45 0 -83 15.5t-65.5 44t-42.5 68t-15 86.5q0 44 16 83t44 68.5t64.5 46.5t78.5 17q8 0 10 -2v-34q0 -57 -1 -90.5t-3 -60.5v-5z" />
</svg>
