<?xml version="1.0" standalone="no"?>
<!DOCTYPE svg PUBLIC "-//W3C//DTD SVG 1.1//EN" "http://www.w3.org/Graphics/SVG/1.1/DTD/svg11.dtd" >
<svg xmlns="http://www.w3.org/2000/svg" xmlns:xlink="http://www.w3.org/1999/xlink" version="1.1" viewBox="-10 0 951 1000">
   <path fill="currentColor"
d="M864 769q5 10 9 21t9 22q4 8 6 17t6 18q-3 -2 -4.5 -2t-2.5 -1q-20 -5 -37.5 -12t-34.5 -14q-10 -5 -19 -7.5t-18 -7.5q-40 -20 -77.5 -42t-75.5 -46q-7 27 -20.5 52t-32.5 44t-44 30.5t-55 11.5q-31 0 -56 -11.5t-44 -30.5t-32 -44t-20 -52q-60 38 -120.5 70.5
t-126.5 55.5q-4 1 -9.5 2.5t-11.5 3.5q2 -6 3.5 -11.5t3.5 -9.5q6 -15 11 -29t11 -28q8 -20 16 -36.5t18 -34.5q5 -8 9 -17t9 -18q9 -16 19.5 -32t19.5 -31q3 -6 6.5 -11t5.5 -10q-28 -8 -53 -20.5t-44 -31.5t-30 -44t-11 -56q0 -30 11.5 -55t31 -44.5t44.5 -33t52 -19.5
q-8 -14 -16 -26.5t-17 -26.5q-20 -32 -38 -67.5t-31 -70.5q-7 -7 -10 -18q-3 -8 -6.5 -16.5t-5.5 -16.5q-2 -6 -4.5 -12.5t-4.5 -13.5q22 7 40.5 14.5t36.5 15.5q20 8 36.5 16t34.5 16q32 17 61.5 35t58.5 36q6 -27 19.5 -52.5t33 -44.5t44.5 -30.5t55 -11.5q32 0 56.5 11.5
t43.5 30.5t32 44t21 53l58 -36t61 -35q18 -8 35 -16t36 -16q18 -8 36.5 -15.5t41.5 -14.5q-8 22 -15.5 40.5t-15.5 36.5q-4 13 -10 24.5t-12 22.5q-4 7 -6 13t-4 11q-25 46 -56 95l-10 16q-2 2 -2.5 4t-2.5 4q28 8 53 21t44 32t30.5 43.5t11.5 56.5q0 30 -11.5 55t-30.5 44
t-44 32.5t-52 20.5q8 14 16 26t16 25q11 17 20 34l18 34q9 18 16.5 34.5t16.5 36.5z" />
</svg>
