<?xml version="1.0" standalone="no"?>
<!DOCTYPE svg PUBLIC "-//W3C//DTD SVG 1.1//EN" "http://www.w3.org/Graphics/SVG/1.1/DTD/svg11.dtd" >
<svg xmlns="http://www.w3.org/2000/svg" xmlns:xlink="http://www.w3.org/1999/xlink" version="1.1" viewBox="-10 0 1258 1000">
   <path fill="currentColor"
d="M1139 706l59 89q11 17 11 35.5t-8.5 34t-24.5 26t-37 10.5h-282l-104 -155h79l-128 -194h67l-147 -216l-145 216h65l-129 194h79l-103 155h-283q-21 0 -36.5 -10.5t-24 -26t-8.5 -34t11 -35.5l127 -192h298q-13 -32 -33 -47.5t-40 -22.5q-23 -8 -47 -7q-6 -22 -15 -40
q-8 -16 -21 -30.5t-31 -19.5l277 -417q11 -15 26.5 -22.5t32.5 -7.5t32.5 7.5t25.5 22.5l361 542q-17 5 -30.5 18t-21.5 27q-10 15 -17 33q-25 -1 -48 6q-20 6 -41.5 19.5t-35.5 41.5h290z" />
</svg>
