<?xml version="1.0" standalone="no"?>
<!DOCTYPE svg PUBLIC "-//W3C//DTD SVG 1.1//EN" "http://www.w3.org/Graphics/SVG/1.1/DTD/svg11.dtd" >
<svg xmlns="http://www.w3.org/2000/svg" xmlns:xlink="http://www.w3.org/1999/xlink" version="1.1" viewBox="-10 0 932 1000">
   <path fill="currentColor"
d="M638 723l31 -72q1 -2 2.5 -4t2.5 -4v-1q0 -1 0.5 -1.5t0.5 -1.5v-3q2 -3 2 -6t2 -7v-1v-1h2v-6l1 -2v-6q1 -1 1 -4v-8l1 -1v-29q-1 -1 -1 -2v-7q-1 -2 -1 -4t-1 -4v-3v-1l-2 -2q0 -2 -2 -3q0 -3 -1 -5v-1q-2 -2 -2 -6l-37 -61l1 -1q1 -2 2.5 -4t2.5 -4q0 -1 1 -3v-4
q2 -3 2 -6t1 -5v-5q3 -1 4 -8v-6l1 -2v-9l1 -5v-19q0 -4 -1 -5v-9q-1 -3 -1 -5t-1 -4v-4q-3 -1 -3 -3l-1 -2q0 -3 -1 -4v-1l-2 -6l-90 -152l62 -144q6 -14 11.5 -19.5t8.5 -5.5l11 1q0 2 4 3l190 325v1q1 1 1 2v2q1 1 1 2v1q1 0 1 1q1 0 1 3v2q2 2 2 6v1l1 1v36l-1 2v9h-2v1
q0 5 -2 6v2q-1 4 -1 6t-1 5v1q-1 1 -1 2v1l-2 3q0 3 -3 5l-132 306q-3 1 -4 7v1l-1 1v1l-1 1l-2 1q0 2 -3 5l-1 1l-1 2h-1v3h-3l-1 1h-1v1l-12 -2q0 -1 -1 -2zM409 723l31 -72q2 -6 4 -8v-1q0 -1 0.5 -1.5t0.5 -1.5v-3q2 -3 2.5 -6t1.5 -7v-1q1 -5 3 -7v-3q0 -3 1 -5v-8
q0 -2 1 -4v-30l-1 -2v-7q-1 -3 -1 -7q0 -1 -2 -1v-3v-1l-1 -2q0 -2 -1 -3q0 -3 -2 -5v-1q-1 -1 -0.5 -2.5t-1.5 -3.5l-155 -262l97 -219q6 -14 11.5 -19.5t6.5 -5.5l13 1q0 1 2 3l190 325v1q1 0 3 2v2q1 1 1 2v1q1 0 1 4v1l1 1v6q0 1 1 1v15q2 0 2 0.5t1 0.5v1v5l-3 3v14
l-1 1v8l-1 1v6l-1 1v1l-1.5 6t-2.5 5v1q-1 1 -1 2v4h-1q0 3 -2 5l-133 306q-3 3 -4 7v1l-1 1v1q-1 0 -2 1v0v1q-1 2 -2 3l-2 2l-1 1v1h-2v1h-1v3h-1v1h-2h-1v1l-12 -2l-1 -2q-1 -1 -1 -1.5t-1 -1.5zM266 955l-1.5 3l-1.5 3l-5 3l-1 2h-1v1h-1l-13 -1q0 -2 -0.5 -2t-1.5 -2
l-190 -325q-7 -14 -7.5 -44t11.5 -57l133 -305q7 -14 12 -19l6 -6l13 2l2 4l191 324q0 1 0.5 1t0.5 2v1q2 1 2 2v2q1 1 1 4v1h2v1q0 3 1 6v9l1 1v2v18l-1 2v10l-1 3v6q-2 2 -2 5v1l-1 1q0 3 -1 6t-2 5q0 3 -1 3v4q-1 2 -2 3t-1 3l-134 303l-3 9v1l-3 1q0 2 -0.5 2t-0.5 1z
M472 966q0 -2 -1 -2t-2 -2l-95 -161l22 -51l22 38q6 12 20 15h6q2 2 6 2l12 2h9l2 -1h2l2 -1q2 -1 3 -2h2q1 -2 1.5 -2.5t1.5 -2.5l5 -3q1 0 1 -3q2 -2 3 -2.5t2 -2.5v-3q3 -1 3 -3q1 -1 3 -4q1 -2 1.5 -4t2.5 -5l116 -265l20 33q0 1 1 3v1l1 2v2q1 1 1 4v1q1 3 1 7l1 1v11
l3 2v13h-3v15h-1v7l-1 2v5l-1 1v1q-1 3 -1 6t-1 5q-1 1 -1 2q-1 0 -2 1v2l-1 2q0 2 -2 6l-133 303l-1 2l-2 5q0 1 -0.5 1t-0.5 1l-1 1v1l-2 3q-1 2 -2 3t-2 3l-5 5h-2l-1 1zM702 966q0 -2 -1 -2t-2 -2l-94 -161l22 -51l20 38q4 8 9.5 10.5t10.5 4.5h6q4 2 8 2h-2l13 2h8h1
q1 -1 3 -1q1 -1 3 -1l1 -1h1l1 -1h2q1 -2 3 -5q4 -2 5 -3l1 -3q1 -2 2.5 -2.5t3.5 -2.5v-2q1 -1 1 -2v-1q2 -2 2 -5q2 -2 3 -4t3 -5l115 -265l20 33q0 1 1 3v1l1 2v2v1l2 2v1v2q2 2 2 6v3q1 1 1 2v33l-1 3v6l-2 2v2q0 3 -2 5v2q-1 3 -1 6t-1 5v2l-1 1v1l-1 1v2q0 2 -1.5 3
t-2.5 3l-132 303l-1 2l-2 5q0 1 -0.5 1t-0.5 1l-1 1v1l-1 3h-2q-2 2 -2 3t-1 3h-1v1l-1 1h-1v1h-2v2h-2l-1 1z" />
</svg>
