<?xml version="1.0" standalone="no"?>
<!DOCTYPE svg PUBLIC "-//W3C//DTD SVG 1.1//EN" "http://www.w3.org/Graphics/SVG/1.1/DTD/svg11.dtd" >
<svg xmlns="http://www.w3.org/2000/svg" xmlns:xlink="http://www.w3.org/1999/xlink" version="1.1" viewBox="-10 0 1153 1000">
   <path fill="currentColor"
d="M846 667q-7 10 -1 22l105 190l-189 -106q-14 -5 -22 1q-5 5 -9.5 10.5t-3.5 10.5l14 113l-63 -77q-16 -19 -41 -16q-14 2 -24 12t-12 24l-29 185l-29 -185q-2 -14 -12 -24t-24 -12q-11 -2 -23 1.5t-20 14.5l-61 77l13 -113q1 -5 -2.5 -10.5t-8.5 -10.5q-10 -5 -23 -1
l-189 106l105 -190q5 -12 -1 -22q-8 -12 -20 -10l-114 11l79 -62q10 -8 13.5 -19t1.5 -22q-2 -13 -12.5 -23.5t-22.5 -12.5l-188 -29l188 -30q12 -2 22.5 -12t12.5 -23q2 -11 -2 -22t-13 -19l-79 -63l114 12q13 2 20 -11q6 -9 1 -21l-105 -190l189 105q13 6 23 -1
q5 -4 8.5 -9.5t2.5 -10.5l-13 -113l61 76q8 11 20 14.5t23 1.5q14 -2 24 -12t12 -23l29 -186l29 186q2 13 11.5 23t23.5 12h1q12 2 22.5 -2.5t18.5 -13.5l63 -76l-14 113q-1 5 3.5 10.5t9.5 9.5q8 7 22 1l189 -105l-105 190q-6 12 1 21q7 13 20 11l113 -12l-78 63
q-18 16 -15 41q2 13 11.5 23t23.5 12l187 30l-187 29q-14 2 -23.5 12.5t-11.5 23.5q-3 25 15 41l78 62l-113 -11q-12 -1 -20 10zM317 500q0 53 20 99t54.5 80.5t81 54t98.5 19.5q53 0 99 -19.5t80 -54t54 -80.5t20 -99t-20 -99t-54 -80t-80 -54t-99 -20q-52 0 -98.5 20
t-81 54t-54.5 80t-20 99zM782 500q0 44 -16.5 82.5t-45.5 67.5t-67 45.5t-82 16.5q-43 0 -82 -16.5t-67.5 -45.5t-45.5 -67.5t-17 -82.5t17 -82.5t45.5 -67.5t67.5 -45.5t82 -16.5q44 0 82 16.5t67 45.5t45.5 67.5t16.5 82.5z" />
</svg>
