<?xml version="1.0" standalone="no"?>
<!DOCTYPE svg PUBLIC "-//W3C//DTD SVG 1.1//EN" "http://www.w3.org/Graphics/SVG/1.1/DTD/svg11.dtd" >
<svg xmlns="http://www.w3.org/2000/svg" xmlns:xlink="http://www.w3.org/1999/xlink" version="1.1" viewBox="-10 0 781 1000">
   <path fill="currentColor"
d="M535 52q27 0 44.5 19.5t13.5 47.5l-74 533q-4 27 -26 47t-49 20h-338q-27 0 -44.5 -20t-13.5 -47l69 -533q4 -28 26 -47.5t50 -19.5h342zM655 180q29 0 45.5 20t12.5 47l-74 534q-4 28 -25.5 47.5t-49.5 19.5h-337q-28 0 -45 -19.5t-13 -47.5l2 -14h273q23 0 43.5 -8.5
t37 -23t27.5 -34.5t14 -42l66 -479h23z" />
</svg>
