<?xml version="1.0" standalone="no"?>
<!DOCTYPE svg PUBLIC "-//W3C//DTD SVG 1.1//EN" "http://www.w3.org/Graphics/SVG/1.1/DTD/svg11.dtd" >
<svg xmlns="http://www.w3.org/2000/svg" xmlns:xlink="http://www.w3.org/1999/xlink" version="1.1" viewBox="-10 0 1197 1000">
   <path fill="currentColor"
d="M955 0q143 58 172 223l-743 564l-332 71l161 -294zM1074 195q-13 -48 -39 -81.5t-65 -55.5l-128 96q75 52 103 139zM327 545q5 0 10 -0.5t8 0.5q32 3 35 35v8l418 -322q-10 -12 -22 -22t-26 -20zM853 362q-11 -33 -27 -59l-421 317l8 3q29 12 25 43q-1 4 -5 14zM357 739
l28 -22q17 -20 21 -42q1 -5 0.5 -9t-1.5 -8q-8 -8 -14.5 -11t-17.5 -3q-14 0 -29.5 6.5t-34.5 17.5q44 -41 41 -75q0 -5 -2.5 -8t-4.5 -5q-3 -2 -6.5 -4t-9.5 -2q-24 -4 -51 12l-23 17l-46 83l57 73z" />
</svg>
